<svg xmlns="http://www.w3.org/2000/svg" version="1.0" width="500.000000pt" height="500.000000pt" viewBox="0 0 500.000000 500.000000" preserveAspectRatio="xMidYMid meet">

<g transform="translate(0.000000,500.000000) scale(0.100000,-0.100000)" fill="#ffffff" stroke="none">
<path d="M2288 4731 c-114 -25 -197 -53 -279 -94 -317 -160 -537 -451 -600 -795 l-14 -74 -40 6 c-22 3 -99 9 -171 12 -322 16 -608 -95 -834 -325 -187 -190 -291 -414 -319 -689 -24 -234 50 -517 189 -721 131 -194 362 -366 580 -431 41 -12 82 -26 90 -30 13 -6 15 -58 15 -376 l0 -369 1598 -3 1597 -2 0 375 0 374 43 11 c204 51 435 194 565 350 146 175 218 331 257 554 104 599 -326 1186 -935 1276 -82 12 -274 9 -376 -6 l-41 -6 -12 64 c-30 154 -94 307 -184 443 -52 77 -204 229 -286 284 -93 63 -232 126 -346 157 -138 36 -367 43 -497 15z" fill="#ffffff"/>
<path d="M903 664 c-3 -8 -4 -68 -1 -132 6 -132 18 -168 75 -225 71 -71 -28 -67 1532 -67 l1406 0 51 24 c58 27 106 80 123 135 6 21 11 93 11 160 l0 121 -1595 0 c-1441 0 -1596 -2 -1602 -16z" fill="#ffffff"/>
</g>
</svg>